<svg id="visual" viewBox="0 0 900 600" width="900" height="600" xmlns="http://www.w3.org/2000/svg" xmlns:xlink="http://www.w3.org/1999/xlink" version="1.1"><path d="M0 183L69 236L138 144L208 219L277 291L346 207L415 228L485 197L554 247L623 130L692 249L762 165L831 239L900 283L900 601L831 601L762 601L692 601L623 601L554 601L485 601L415 601L346 601L277 601L208 601L138 601L69 601L0 601Z" fill="#790808"></path><path d="M0 321L69 242L138 340L208 245L277 277L346 343L415 346L485 271L554 322L623 228L692 244L762 336L831 359L900 250L900 601L831 601L762 601L692 601L623 601L554 601L485 601L415 601L346 601L277 601L208 601L138 601L69 601L0 601Z" fill="#620203"></path><path d="M0 408L69 442L138 412L208 370L277 348L346 409L415 427L485 346L554 362L623 399L692 345L762 402L831 445L900 366L900 601L831 601L762 601L692 601L623 601L554 601L485 601L415 601L346 601L277 601L208 601L138 601L69 601L0 601Z" fill="#4a0000"></path><path d="M0 510L69 508L138 499L208 523L277 493L346 438L415 433L485 488L554 509L623 481L692 501L762 526L831 517L900 445L900 601L831 601L762 601L692 601L623 601L554 601L485 601L415 601L346 601L277 601L208 601L138 601L69 601L0 601Z" fill="#000000"></path></svg>